<svg width="152" height="128" viewBox="0 0 152 128" fill="none" xmlns="http://www.w3.org/2000/svg">
<path d="M15.9475 36.9548L21.1993 11.5036H150.879L145.223 36.9548H100.785L92.7048 101.996H145.223L138.759 126.64H5.03986L10.6957 101.996H65.6378L71.6976 36.9548H15.9475Z" stroke="#1B1B1B"/>
<path d="M21.1993 11.5036L17.5634 1H147.647" stroke="#1B1B1B"/>
<path d="M151 11.5036L147.364 1" stroke="#1B1B1B"/>
<path d="M15.9475 36.9547L12.3116 26.4511" stroke="#1B1B1B"/>
<path d="M74.1215 11.9076L70.4856 1.40399" stroke="#1B1B1B"/>
<path d="M65.2338 101.593L61.5979 91.0889" stroke="#1B1B1B"/>
<path d="M62.8099 126.64L59.174 116.136" stroke="black" stroke-opacity="0.2"/>
<path d="M104.016 11.9076L100.381 1.40399" stroke="#1B1B1B"/>
<path d="M11.0996 102.4L7.46378 91.8969" stroke="#1B1B1B"/>
<path d="M4.63587 126.64L1 116.136" stroke="#1B1B1B"/>
<path d="M145.223 101.593L141.587 91.0889" stroke="#1B1B1B"/>
<path d="M12.3116 26.8551L17.5634 1" stroke="#1B1B1B"/>
<path d="M1 116.136L7.46378 91.0889" stroke="#1B1B1B"/>
<path d="M7.46378 91.4929H61.5979" stroke="#1B1B1B"/>
<path d="M93.9168 91.0889L141.587 91.0889" stroke="#1B1B1B"/>
<path d="M63.2139 126.236L74.1215 11.5036" stroke="#1B1B1B"/>
<path d="M61.5979 91.0889L66.8497 36.9548" stroke="#1B1B1B"/>
<path d="M66.8497 36.9548L70.0816 1.40399" stroke="black" stroke-opacity="0.2"/>
<path d="M59.174 116.136L61.5979 91.0889" stroke="black" stroke-opacity="0.2"/>
<path d="M104.016 11.0997L92.7048 101.997" stroke="#1B1B1B"/>
</svg>